<svg width="61" height="16" viewBox="0 0 61 16" fill="none" xmlns="http://www.w3.org/2000/svg">
<path d="M17.92 0.7V15.5H13.78V3.8H8.16C7.88 5.6 7.57333 7.17333 7.24 8.52C6.92 9.86667 6.46 11.2267 5.86 12.6C5.46 13.44 4.91333 14.0667 4.22 14.48C3.54 14.8933 3 15.14 2.6 15.22C2.21333 15.2867 1.53333 15.38 0.56 15.5V11.98C1.57333 11.98 2.26 11.4733 2.62 10.46C3.55333 7.5 4.14667 4.24667 4.4 0.7H17.92ZM26.5938 4.14C27.9937 4.14 29.2538 4.39333 30.3738 4.9C31.4938 5.40667 32.3671 6.11333 32.9938 7.02C33.6338 7.91333 33.9538 8.92 33.9538 10.04C33.9538 11.1467 33.6338 12.1533 32.9938 13.06C32.3671 13.9533 31.4938 14.6533 30.3738 15.16C29.2538 15.6667 27.9937 15.92 26.5938 15.92C25.2471 15.92 23.9871 15.6667 22.8138 15.16C21.6404 14.64 20.7004 13.9333 19.9938 13.04C19.3004 12.1333 18.9538 11.1333 18.9538 10.04C18.9538 8.93333 19.3004 7.93333 19.9938 7.04C20.7004 6.13333 21.6404 5.42667 22.8138 4.92C23.9871 4.4 25.2471 4.14 26.5938 4.14ZM26.5938 13.4C27.5538 13.4 28.3738 13.1133 29.0538 12.54C29.7338 11.9667 30.0738 11.1333 30.0738 10.04C30.0738 8.93333 29.7338 8.09333 29.0538 7.52C28.3738 6.94667 27.5538 6.66 26.5938 6.66C25.9804 6.66 25.3871 6.78667 24.8138 7.04C24.2538 7.28 23.7938 7.65333 23.4338 8.16C23.0738 8.66667 22.8938 9.29333 22.8938 10.04C22.8938 10.7733 23.0738 11.3933 23.4338 11.9C23.7938 12.4067 24.2538 12.7867 24.8138 13.04C25.3871 13.28 25.9804 13.4 26.5938 13.4ZM45.0969 4.6V7.28H39.0569V15.5H34.9569V4.6H45.0969ZM52.8828 4.14C54.2828 4.14 55.5428 4.39333 56.6628 4.9C57.7828 5.40667 58.6561 6.11333 59.2828 7.02C59.9228 7.91333 60.2428 8.92 60.2428 10.04C60.2428 11.1467 59.9228 12.1533 59.2828 13.06C58.6561 13.9533 57.7828 14.6533 56.6628 15.16C55.5428 15.6667 54.2828 15.92 52.8828 15.92C51.5361 15.92 50.2761 15.6667 49.1028 15.16C47.9295 14.64 46.9895 13.9333 46.2828 13.04C45.5895 12.1333 45.2428 11.1333 45.2428 10.04C45.2428 8.93333 45.5895 7.93333 46.2828 7.04C46.9895 6.13333 47.9295 5.42667 49.1028 4.92C50.2761 4.4 51.5361 4.14 52.8828 4.14ZM52.8828 13.4C53.8428 13.4 54.6628 13.1133 55.3428 12.54C56.0228 11.9667 56.3628 11.1333 56.3628 10.04C56.3628 8.93333 56.0228 8.09333 55.3428 7.52C54.6628 6.94667 53.8428 6.66 52.8828 6.66C52.2695 6.66 51.6761 6.78667 51.1028 7.04C50.5428 7.28 50.0828 7.65333 49.7228 8.16C49.3628 8.66667 49.1828 9.29333 49.1828 10.04C49.1828 10.7733 49.3628 11.3933 49.7228 11.9C50.0828 12.4067 50.5428 12.7867 51.1028 13.04C51.6761 13.28 52.2695 13.4 52.8828 13.4Z" fill="#7C7C7C"/>
</svg>
