<svg width="194" height="59" viewBox="0 0 194 59" fill="none" xmlns="http://www.w3.org/2000/svg">
<g clip-path="url(#clip0_42_220)">
<path d="M193.911 57.3391C190.372 57.3391 186.817 57.3391 183.278 57.3695C182.625 57.3695 182.549 57.0964 182.549 56.5505C182.565 48.5127 182.565 40.475 182.565 32.4373C182.565 30.769 182.276 30.4051 180.62 30.1322C180.029 30.0412 179.406 30.0108 178.813 29.9956C176.338 29.9804 173.847 30.0108 171.371 29.9654C170.642 29.9502 170.445 30.1776 170.445 30.8904C170.476 39.3831 170.445 47.8758 170.476 56.3684C170.476 57.1268 170.324 57.3695 169.519 57.3543C166.588 57.3089 163.641 57.3089 160.709 57.3543C159.95 57.3695 159.737 57.1723 159.737 56.3836C159.768 39.4589 159.753 22.519 159.753 5.59428C159.753 4.86633 159.737 4.12323 159.768 3.39528C159.783 3.09197 159.889 2.78865 159.965 2.48535C160.284 2.5915 160.649 2.60667 160.907 2.78865C162.835 4.16872 164.75 5.59428 166.664 7.00468C167.818 7.85395 169.001 8.68805 170.127 9.58283C170.384 9.79514 170.612 10.2349 170.612 10.5686C170.642 13.905 170.612 17.2414 170.612 20.5779C170.612 21.7002 170.764 21.8518 171.873 21.8518C177.112 21.8518 182.352 21.8518 187.592 21.8518C191.085 21.8518 193.045 23.5351 193.576 27.008C193.712 27.9028 193.819 28.7975 193.94 29.6923V57.3391H193.911Z" fill="white"/>
<path d="M79.9683 30.2225V31.1475C79.9683 39.5948 79.9532 48.0268 79.9835 56.4741C79.9835 57.1565 79.8164 57.3839 79.1026 57.3839C75.9435 57.3535 72.7692 57.3385 69.61 57.3839C68.8507 57.3991 68.6837 57.1261 68.6837 56.4285C68.6989 47.9812 68.6837 39.5492 68.7141 31.1021C68.7141 30.3589 68.5469 30.086 67.7572 30.1011C64.9778 30.1466 62.1984 30.1163 59.3127 30.1163C59.2975 30.4651 59.2671 30.7836 59.2671 31.1021C59.2671 39.5948 59.2519 48.0874 59.2823 56.5801C59.2823 57.2475 59.0545 57.3839 58.447 57.3687C55.379 57.3385 52.3263 57.3385 49.2581 57.3687C48.5748 57.3839 48.4076 57.1716 48.4228 56.5195C48.438 47.86 48.438 39.1853 48.4228 30.5106C48.4228 29.9646 48.2558 29.358 47.9976 28.8727C46.9799 26.8708 45.8864 24.8993 44.8233 22.9277C44.3373 22.0179 44.3981 21.9117 45.446 21.9117C60.8315 21.9117 76.2169 21.9117 91.6024 21.9117C92.6351 21.9117 93.683 21.9725 94.7159 21.8966C97.0851 21.7146 100.244 24.687 100.214 27.3259C100.092 37.0773 100.153 46.8287 100.183 56.5801C100.183 57.2475 99.9405 57.3687 99.3481 57.3687C96.417 57.3385 93.4704 57.3385 90.5392 57.3687C89.9013 57.3687 89.7341 57.1717 89.7341 56.5499C89.7493 48.5424 89.7493 40.535 89.7493 32.5125C89.7493 30.8594 89.4153 30.3287 87.7901 30.2529C85.2385 30.1315 82.6565 30.2225 79.9683 30.2225Z" fill="white"/>
<path d="M23.1959 15.4209C20.8419 15.4209 18.4877 15.5119 16.1336 15.4057C12.8074 15.2389 10.6963 17.6806 10.59 20.2132C10.4836 22.943 12.6859 25.0509 15.7842 25.3846C19.885 25.8244 23.9706 26.3401 28.0561 26.9012C29.3926 27.0831 30.7293 27.4624 32.0202 27.8869C36.212 29.2822 38.7182 32.1788 39.5079 36.5162C40.1609 40.2014 40.0699 43.8866 39.0522 47.4809C37.9131 51.4998 35.1489 54.1233 31.3064 55.6551C28.4055 56.8228 25.3223 57.1261 22.2392 57.2625C15.04 57.6114 7.88649 57.1565 0.763322 55.9432C0.0342976 55.8219 -0.193522 55.4124 0.17099 54.7755C1.7961 51.9243 3.4364 49.0732 5.0919 46.2372C5.48679 45.5548 6.20063 45.57 6.76258 45.7368C10.7874 46.935 14.9489 47.0108 19.0801 47.3141C20.8875 47.4505 22.6644 47.2685 24.411 46.7529C26.1881 46.2372 27.236 45.1151 27.6765 43.3254C28.2991 40.8535 27.4638 38.154 25.5045 37.1228C24.5478 36.6222 23.4087 36.3948 22.3302 36.2583C18.3055 35.8034 14.2806 35.3787 10.3773 34.2262C7.59793 33.4072 5.00077 32.2547 3.1782 29.8584C1.70498 27.9325 1.02152 25.6879 0.672193 23.3525C0.216554 20.3043 0.17099 17.2256 1.2949 14.2986C2.96558 9.97644 6.32212 7.53479 10.6507 6.24572C13.1263 5.5026 15.6628 5.24479 18.2295 5.22963C24.0769 5.18414 29.9243 5.18414 35.7717 5.15381C36.8348 5.15381 37.0626 5.5026 36.5766 6.42771C35.1033 9.21817 33.6302 12.0086 32.1721 14.8142C31.9442 15.254 31.6708 15.4209 31.1697 15.4209C28.5119 15.4209 25.8539 15.4209 23.1959 15.4209Z" fill="white"/>
<path d="M129.239 2.22656C129.922 2.69669 130.606 3.16682 131.274 3.63696C134.053 5.60847 136.833 7.59516 139.627 9.55152C140.083 9.86998 140.28 10.2188 140.28 10.7951C140.25 14.0557 140.28 17.3162 140.25 20.5769C140.25 21.1987 140.432 21.4109 141.07 21.3957C144.563 21.3655 148.057 21.3957 151.55 21.3807C152.157 21.3807 152.385 21.5171 152.37 22.1843C152.324 24.3531 152.34 26.5369 152.37 28.7057C152.385 29.3274 152.173 29.4639 151.58 29.4639C148.057 29.4487 144.548 29.4639 141.025 29.4487C140.508 29.4487 140.159 29.4943 140.174 30.1615C140.22 34.9841 140.204 39.8068 140.265 44.6445C140.28 45.4181 140.447 46.1915 140.66 46.9497C141.009 48.2389 141.936 48.8909 143.242 49.0577C145.976 49.3914 148.695 49.2094 151.413 48.8454C152.355 48.7242 152.355 48.7242 152.34 49.6341C152.34 51.8027 152.324 53.9866 152.355 56.1552C152.355 56.6101 152.279 56.8378 151.762 56.8984C147.555 57.3533 143.333 57.6264 139.111 57.1713C135.739 56.8074 132.777 55.5941 130.849 52.6065C129.588 50.6501 129.087 48.4663 129.072 46.1915C129.026 38.821 129.041 31.4354 129.011 24.0498C128.996 17.2252 128.965 10.4008 128.95 3.57629C128.95 3.15165 128.95 2.74218 128.95 2.33271C129.057 2.28722 129.148 2.25689 129.239 2.22656Z" fill="white"/>
<path d="M120.368 39.6104C120.368 45.2519 120.352 50.8784 120.383 56.5199C120.383 57.1871 120.201 57.3843 119.532 57.3691C116.145 57.3389 112.743 57.3389 109.356 57.3691C108.764 57.3691 108.506 57.2479 108.506 56.5805C108.521 45.2519 108.521 33.9385 108.506 22.6097C108.506 22.0335 108.688 21.8818 109.25 21.8818C112.698 21.8969 116.13 21.9121 119.578 21.8818C120.231 21.8818 120.368 22.0941 120.368 22.7007C120.352 28.3424 120.368 33.9839 120.368 39.6104Z" fill="white"/>
<path d="M120.368 12.737C117.832 12.737 115.432 12.737 113.032 12.737C111.741 12.737 110.45 12.7219 109.159 12.737C108.719 12.737 108.521 12.6157 108.521 12.1456C108.537 8.30868 108.521 4.45663 108.537 0.619747C108.537 0.452926 108.613 0.301272 108.673 0.043457C108.931 0.164781 109.129 0.255774 109.311 0.361934C112.804 2.54577 116.298 4.72961 119.806 6.91345C120.216 7.17126 120.398 7.44425 120.383 7.94471C120.338 9.52192 120.368 11.084 120.368 12.737Z" fill="#FF2E07"/>
</g>
<defs>
<clipPath id="clip0_42_220">
<rect width="194" height="58.2" fill="white" transform="translate(0 0.043457)"/>
</clipPath>
</defs>
</svg>
