<svg width="24" height="25" viewBox="0 0 24 25" fill="none" xmlns="http://www.w3.org/2000/svg">
<path d="M14.0057 16.6728C13.4086 17.0709 12.7151 17.2813 12 17.2813C11.285 17.2813 10.5914 17.0709 9.99431 16.6728L0.159797 10.1163C0.105234 10.0799 0.0520781 10.042 0 10.003V20.7466C0 21.9784 0.999609 22.9559 2.20936 22.9559H21.7906C23.0224 22.9559 24 21.9563 24 20.7466V10.0029C23.9478 10.042 23.8945 10.08 23.8398 10.1165L14.0057 16.6728Z" fill="#353641" fill-opacity="0.2"/>
<path d="M0.939844 7.934L10.7744 14.4906C11.1466 14.7388 11.5733 14.8629 12 14.8629C12.4267 14.8629 12.8534 14.7388 13.2256 14.4906L23.0602 7.934C23.6487 7.54189 24 6.88564 24 6.17736C24 4.9595 23.0092 3.96875 21.7914 3.96875H2.20861C0.990797 3.9688 0 4.95955 0 6.17853C0 6.88564 0.351375 7.54189 0.939844 7.934Z" fill="#353641" fill-opacity="0.2"/>
</svg>
