<svg width="24" height="25" viewBox="0 0 24 25" fill="none" xmlns="http://www.w3.org/2000/svg">
<g clip-path="url(#clip0_48_1233)">
<path d="M22.0742 16.722C20.6049 16.722 19.1621 16.4922 17.7949 16.0404C17.125 15.8119 16.3014 16.0215 15.8926 16.4414L13.194 18.4786C10.0644 16.808 8.13669 14.8809 6.48894 11.7748L8.46612 9.14656C8.97981 8.63356 9.16406 7.88419 8.94331 7.18106C8.48956 5.80669 8.25906 4.36462 8.25906 2.89462C8.25913 1.83269 7.39519 0.96875 6.33331 0.96875H1.92581C0.863937 0.96875 0 1.83269 0 2.89456C0 15.0664 9.90237 24.9688 22.0742 24.9688C23.1361 24.9688 24.0001 24.1048 24.0001 23.0429V18.6478C24 17.5859 23.1361 16.722 22.0742 16.722Z" fill="#353641" fill-opacity="0.2"/>
</g>
<defs>
<clipPath id="clip0_48_1233">
<rect width="24" height="24" fill="white" transform="translate(0 0.96875)"/>
</clipPath>
</defs>
</svg>
